<svg xmlns="http://www.w3.org/2000/svg" width="1200" height="675" viewBox="0 0 1200 675">
  <defs>
    <linearGradient id="bg" x1="0" y1="0" x2="1" y2="1">
      <stop offset="0%" stop-color="#3776ab"/>
      <stop offset="100%" stop-color="#ffd43b"/>
    </linearGradient>
  </defs>
  <rect width="1200" height="675" fill="url(#bg)"/>
  <path d="M470 240c0-35 28-63 63-63h116c35 0 63 28 63 63v70H565c-34 0-62 28-62 62v58H470c-35 0-63-28-63-63V240h63z" fill="#1f1f1f" opacity="0.2"/>
  <path d="M730 435c0 35-28 63-63 63H551c-35 0-63-28-63-63v-70h147c34 0 62-28 62-62v-58h33c35 0 63 28 63 63v127h-63z" fill="#1f1f1f" opacity="0.2"/>
  <text x="600" y="580" text-anchor="middle" fill="#1f1f1f" font-family="Segoe UI, Arial, sans-serif" font-size="68" font-weight="700">Python</text>
</svg>
